<svg width="24" height="24" viewBox="0 0 24 24" fill="none" xmlns="http://www.w3.org/2000/svg">
<path d="M16 8H7.99998V16H16M16 8V16M16 8H19C19.5933 8 20.1733 7.82405 20.6667 7.49441C21.16 7.16477 21.5446 6.69623 21.7716 6.14805C21.9987 5.59987 22.0581 4.99667 21.9423 4.41473C21.8266 3.83279 21.5409 3.29824 21.1213 2.87868C20.7017 2.45912 20.1672 2.1734 19.5852 2.05765C19.0033 1.94189 18.4001 2.0013 17.8519 2.22836C17.3037 2.45543 16.8352 2.83994 16.5056 3.33329C16.1759 3.82664 16 4.40666 16 5V8ZM16 16L19 16.001C19.5933 16.001 20.1733 16.1769 20.6667 16.5066C21.16 16.8362 21.5446 17.3048 21.7716 17.853C21.9987 18.4011 22.0581 19.0043 21.9423 19.5863C21.8266 20.1682 21.5409 20.7028 21.1213 21.1223C20.7017 21.5419 20.1672 21.8276 19.5852 21.9434C19.0033 22.0591 18.4001 21.9997 17.8519 21.7726C17.3037 21.5456 16.8352 21.1611 16.5056 20.6677C16.1759 20.1744 16 19.5943 16 19.001V16ZM8.00098 16.001H5.00098C4.40763 16.001 3.82761 16.1769 3.33427 16.5066C2.84092 16.8362 2.4564 17.3048 2.22934 17.853C2.00228 18.4011 1.94287 19.0043 2.05862 19.5863C2.17438 20.1682 2.4601 20.7028 2.87966 21.1223C3.29922 21.5419 3.83376 21.8276 4.41571 21.9434C4.99765 22.0591 5.60085 21.9997 6.14903 21.7726C6.69721 21.5456 7.16574 21.1611 7.49539 20.6677C7.82503 20.1744 8.00098 19.5943 8.00098 19.001V16.001ZM8.00098 8H5.00098C4.40763 8 3.82761 7.82405 3.33427 7.49441C2.84092 7.16477 2.4564 6.69623 2.22934 6.14805C2.00228 5.59987 1.94287 4.99667 2.05862 4.41473C2.17438 3.83279 2.4601 3.29824 2.87966 2.87868C3.29922 2.45912 3.83376 2.1734 4.41571 2.05765C4.99765 1.94189 5.60085 2.0013 6.14903 2.22836C6.69721 2.45543 7.16574 2.83994 7.49539 3.33329C7.82503 3.82664 8.00098 4.40666 8.00098 5V8Z" stroke="black" stroke-width="1.5"/>
</svg>
